<svg xmlns="http://www.w3.org/2000/svg" viewBox="0 0 24 24">
  <defs>
    <clipPath id="top"><rect x="0" y="0" width="24" height="8"/></clipPath>
    <clipPath id="mid"><rect x="0" y="8" width="24" height="8"/></clipPath>
    <clipPath id="bot"><rect x="0" y="16" width="24" height="8"/></clipPath>
  </defs>
  <g>
    <path clip-path="url(#top)" d="M12 21.35l-1.45-1.32C5.4 15.36 2 12.28 2 8.5 2 5.42 4.42 3 7.5 3c1.74 0 3.41.81 4.5 2.09C13.09 3.81 14.76 3 16.5 3 19.58 3 22 5.42 22 8.5c0 3.78-3.4 6.86-8.55 11.54L12 21.35Z" fill="#FFD100"/>
    <path clip-path="url(#mid)" d="M12 21.35l-1.45-1.32C5.4 15.36 2 12.28 2 8.5 2 5.42 4.42 3 7.5 3c1.74 0 3.41.81 4.5 2.09C13.09 3.81 14.76 3 16.5 3 19.58 3 22 5.42 22 8.5c0 3.78-3.4 6.86-8.55 11.54L12 21.35Z" fill="#003893"/>
    <path clip-path="url(#bot)" d="M12 21.35l-1.45-1.32C5.4 15.36 2 12.28 2 8.5 2 5.42 4.42 3 7.5 3c1.74 0 3.41.81 4.5 2.09C13.09 3.81 14.76 3 16.5 3 19.58 3 22 5.42 22 8.5c0 3.78-3.4 6.86-8.55 11.54L12 21.35Z" fill="#CF142B"/>
  </g>
</svg>
